<svg fill="#fff" xmlns="http://www.w3.org/2000/svg" width="603.08" height="105" viewBox="0 0 603.08 105"><g id="ffdaca26-ea70-4a2c-909a-d58e9e9bcdef" data-name="レイヤー 2"><g id="a62adde5-b9c3-48f9-b436-ebecdcaab667" data-name="レイヤー 1"><path d="M0,0H99.62V91.54H88.85C80.77,91.54,78.08,105,48.46,105S16.15,91.54,8.08,91.54H0V75.38H83.46V56.54H0V40.38H83.46V16.15H0ZM110.38,56.54H175V40.38H110.38ZM185.77,0h99.61V91.54H274.62c-8.08,0-10.77,13.46-40.39,13.46s-32.31-13.46-40.38-13.46h-8.08V0Zm16.15,75.38h67.31V16.15H201.92Zm320.39-70h26.92V18.85H522.31v5.38h24.23a2.69,2.69,0,0,1,2.69,2.69V67.31h-7.74c-4.26,0-6,6.44-19.18,7.6v3.17h26.92V91.54H522.31V105H511.54V91.54H487.31V78.08h24.23V74.64c-11.09-1.66-12.85-7.33-16.84-7.33h-7.39V26.4a2.17,2.17,0,0,1,2.16-2.17h22.07V18.85H487.31V5.38h24.23V0h10.77ZM511.54,51.15H498.08v5.39h13.46Zm0-16.15H498.08v5.38h13.46Zm26.92,16.15H522.31v5.39h16.15ZM522.31,35v5.38h16.15V35ZM315,37.69H298.85V64.62H315Zm24.23,0H323.08V64.62h16.15ZM350,61.92c0,13-11.06,26.93-18.85,26.93h-32.3V105h32.3c18.85,0,35-23.69,35-43.08V37.69H350Zm48.46,10.77c0,14.32-7.19,16.16-13.46,16.16H368.85V105H385c18.54,0,29.62-12.08,29.62-32.31V0H398.46Zm48.46-27.63V72.69c0,14.32,7.2,16.16,13.46,16.16h16.16V105H460.38c-18.54,0-29.61-12.08-29.61-32.31V0h16.15V14.17a18.85,18.85,0,1,1,0,30.89Zm2.7-15.44a8.08,8.08,0,1,0,8.07-8.08A8.08,8.08,0,0,0,449.62,29.62ZM603.08,18.85V5.38H554.62V18.85h16.15V35h-17.5V48.46h.66c4,0,5.75,5.67,16.84,7.33V105h13.46V55.74C595,54,596.77,48.46,600.72,48.46h1V35h-17.5V18.85Z"/></g></g></svg>
